<svg xmlns:dc="http://purl.org/dc/elements/1.1/" xmlns:cc="http://creativecommons.org/ns#" xmlns:rdf="http://www.w3.org/1999/02/22-rdf-syntax-ns#" xmlns:svg="http://www.w3.org/2000/svg" xmlns="http://www.w3.org/2000/svg" xmlns:sodipodi="http://sodipodi.sourceforge.net/DTD/sodipodi-0.dtd" xmlns:inkscape="http://www.inkscape.org/namespaces/inkscape" width="210mm" height="297mm" viewBox="0 0 210 297" version="1.1" id="svg8" inkscape:version="1.0beta1 (32d4812, 2019-09-19)" sodipodi:docname="icon.svg" style="&#10;    /* width: auto !important; */&#10;">
  <defs id="defs2"/>
  <sodipodi:namedview id="base" pagecolor="#ffffff" bordercolor="#666666" borderopacity="1.0" inkscape:pageopacity="0.0" inkscape:pageshadow="2" inkscape:zoom="0.35" inkscape:cx="400" inkscape:cy="560" inkscape:document-units="mm" inkscape:current-layer="layer1" inkscape:document-rotation="0" showgrid="false" inkscape:window-width="1605" inkscape:window-height="907" inkscape:window-x="0" inkscape:window-y="23" inkscape:window-maximized="0"/>
  <metadata id="metadata5">
    <rdf:RDF>
      <cc:Work rdf:about="">
        <dc:format>image/svg+xml</dc:format>
        <dc:type rdf:resource="http://purl.org/dc/dcmitype/StillImage"/>
        <dc:title/>
      </cc:Work>
    </rdf:RDF>
  </metadata>
  <g inkscape:label="レイヤー 1" inkscape:groupmode="layer" id="layer1" style="display:inline;">
    

    <path style="fill: url(#gradient) #fff;stroke-width:0.531131;" d="m 240.51542,284.2644 c -9.53939,-8.85417 -20.65331,-18.66687 -24.69759,-21.80599 l -7.35324,-5.70751 -3.62551,0.35642 c -2.82831,0.27804 -4.81371,0.94071 -9.02922,3.0137 l -5.40373,2.65729 -8.23253,-0.32971 c -10.25145,-0.41056 -25.41489,-2.10155 -33.46126,-3.73153 -6.0785,-1.23134 -6.11847,-1.24938 -8.27542,-3.73537 l -2.16741,-2.49807 -2.96268,0.86128 c -2.36327,0.68702 -4.45432,2.07004 -10.33526,6.83574 -4.05492,3.28596 -8.94575,6.99836 -10.86851,8.24978 -4.00032,2.6036 -9.50448,4.36382 -13.64552,4.36382 -2.374969,0 -3.18693,-0.26963 -4.901751,-1.6278 -1.130399,-0.89529 -3.490876,-2.19041 -5.245505,-2.87805 -1.75463,-0.68763 -6.060376,-3.12199 -9.568325,-5.40968 l -6.37809,-4.15944 -0.01693,-2.92122 c -0.118828,-20.50379 0.05757,-27.02638 0.804391,-29.74334 3.425055,-12.46052 3.880402,-15.68391 4.276674,-30.27447 0.251215,-9.24964 0.628579,-14.89437 1.100731,-16.46506 1.057539,-3.51809 0.95238,-4.01258 -1.619912,-7.61732 -1.29243,-1.81118 -2.849467,-4.56053 -3.460081,-6.10967 -1.021574,-2.59176 -1.049415,-2.99568 -0.348723,-5.05952 1.315611,-3.87504 1.842125,-8.25625 2.213605,-18.41974 l 0.360132,-9.853 -3.171579,-4.48754 c -1.744369,-2.46815 -4.821653,-7.20696 -6.83841,-10.53068 l -3.66683,-6.04314 -1.062262,-8.03184 C 61.918329,95.478079 61.907526,94.683236 62.684765,84.773854 63.48462,74.576136 63.524214,74.373769 65.25842,71.61987 c 1.943951,-3.086974 2.977148,-3.847003 5.209956,-3.83249 1.238729,0.0081 2.212583,0.879419 5.671461,5.0746 2.296764,2.785683 4.273085,4.967727 4.391827,4.848986 0.11874,-0.118741 0.913639,-3.059586 1.766439,-6.53521 0.852801,-3.475625 2.902459,-10.143461 4.554796,-14.817415 2.533827,-7.167418 3.66998,-9.53769 7.255803,-15.137235 l 4.251555,-6.639139 6.675613,-3.983483 c 3.67158,-2.190915 6.88362,-4.066193 7.13786,-4.167284 0.25423,-0.101091 -0.71883,2.04999 -2.16236,4.78018 -1.44354,2.730189 -4.58986,9.74416 -6.99184,15.586602 -4.316182,10.498476 -4.382943,10.73125 -5.71238,19.917415 l -1.345158,9.294794 0.974754,10.212031 c 0.536115,5.616615 1.128488,10.460775 1.316384,10.764795 0.219987,0.355948 1.347962,0.407584 3.16786,0.14503 l 2.82624,-0.407744 2.47442,-11.153752 c 2.26513,-10.210358 2.80083,-11.87253 6.33362,-19.65185 3.35602,-7.390066 4.56771,-9.417378 9.29311,-15.548559 3.39839,-4.409404 8.01497,-9.505381 12.32423,-13.604013 5.80577,-5.522001 7.54985,-6.858268 11.08035,-8.489458 2.30451,-1.064749 4.29746,-1.828468 4.42877,-1.697152 0.30791,0.307901 -2.25345,4.547581 -10.28951,17.031677 -8.75899,13.607196 -10.25837,17.471508 -14.52884,37.44474 -1.78007,8.32548 -3.36957,15.568026 -3.53223,16.094552 -0.2647,0.856842 0.0219,0.940458 2.73062,0.796697 l 3.02636,-0.16062 7.5081,-16.057855 7.50811,-16.057852 6.9047,-6.377384 6.9047,-6.377384 1.06227,1.209268 c 0.58424,0.665098 1.79052,2.122563 2.68062,3.238812 l 1.61836,2.029543 4.748,-1.965437 4.74799,-1.965437 13.12652,-0.797833 c 12.52231,-0.761108 13.81839,-0.746701 28.15717,0.312997 l 15.03064,1.110829 16.20214,4.461171 c 20.15984,5.550902 27.95263,7.287553 45.40906,10.119573 l 13.80941,2.240351 0.134,113.751573 0.13401,113.75157 -22.70708,-0.0251 -22.70707,-0.0251 z" id="path49" inkscape:connector-curvature="0" transform="scale(0.26458333)"/>
  </g>
  <g inkscape:groupmode="layer" id="layer3" inkscape:label="レイヤー 2" style="display: n;">
    <path style="fill:#ffffff;/* stroke:#000000; */stroke-width:0.26458300000000001px;stroke-linecap:butt;stroke-linejoin:miter;stroke-opacity:1;" d="m 18.860978,22.13278 -0.866065,1.154754 0.192459,2.501966 0.09623,1.828362 1.539672,3.752947 1.539671,0.192461 -0.962294,-6.062458 z" id="path56" inkscape:connector-curvature="0"/>
    <path style="fill:#ffffff;/* stroke:#000000; */stroke-width:0.26458300000000001px;stroke-linecap:butt;stroke-linejoin:miter;stroke-opacity:1;" d="m 40.223921,17.706224 -2.020819,5.677539 -0.577376,3.464262 3.079342,-0.866066 h 2.886885 l -1.347211,-4.907703 z" id="path58" inkscape:connector-curvature="0"/>
    <path style="fill:#ffffff;/* stroke:#000000; */stroke-width:0.26458300000000001px;stroke-linecap:butt;stroke-linejoin:miter;stroke-opacity:1;" d="m 33.391628,39.165397 -1.732129,1.828361 -0.673608,4.234098 0.866066,0.481147 1.539671,-2.983113 0.28869,-1.92459 z" id="path60" inkscape:connector-curvature="0"/>
    <path style="fill:#ffffff;/* stroke:#000000; */stroke-width:0.26458300000000001px;stroke-linecap:butt;stroke-linejoin:miter;stroke-opacity:1;" d="m 43.207035,16.262782 4.137869,-1.539672 -1.154753,1.732131 1.924589,0.192459 -0.577379,0.769836 h 1.154756 l -1.058524,0.769836 1.732129,0.192458 -0.577376,1.250984 h 1.154753 l -0.769835,1.250983 h 1.443443 l -0.673608,0.962295 h 1.250984 l -1.154755,1.443442 h 1.443442 l -0.866063,0.962295 1.154752,0.384918 v 1.347212 l -0.673605,0.288689 0.577376,1.347214 1.443443,0.577376 -1.828361,1.828358 1.539671,1.058526 -1.732129,1.443443 1.347211,1.154753 -0.962295,1.058523 1.250984,1.347214 -2.501966,3.271803 1.058524,1.34721 -1.347213,0.384919 1.058523,1.92459 -1.443439,0.962295 1.34721,2.501966 -1.539671,2.213279 0.866066,1.828358 -1.732132,2.983116 0.962295,1.539671 -2.020818,0.288687 0.288689,1.635903 h -0.673608 l -0.962295,1.92459 h -1.250982 v 0.866063 l -1.347213,-0.288687 -0.384918,1.443443 -1.443443,-0.866066 -0.384915,2.020818 -1.443443,-0.09623 -0.09623,1.058524 -2.020819,-0.288687 -0.09623,1.250982 -1.058524,-0.288689 -0.481147,1.924589 -1.347214,1.443443 -2.117047,2.11705 -2.886885,2.117048 -1.732132,0.769836 -2.117047,-0.09623 -1.250983,-1.154753 0.866065,-0.09623 1.635902,0.481148 1.6359,-0.673608 2.117048,-2.309506 2.598198,-4.619016 -1.539674,-0.09623 -0.673606,0.481147 -1.154752,1.539671 -1.92459,2.405737 -1.058524,2.020819 h -0.481147 l 0.384915,-1.732129 0.673608,-0.962295 0.192458,-2.309508 -0.866066,-1.6359 -2.117047,-1.250985 -0.866065,-0.288687 -1.828361,0.288687 -1.058524,0.769837 -0.673606,0.769835 -0.288688,0.384918 -0.577377,-0.866066 0.192459,-2.405737 0.769835,-2.309506 0.384918,-1.058526 0.288689,-0.288687 1.250983,0.866066 1.154754,-1.828361 2.213278,1.828361 1.732132,-1.539674 1.443442,1.250985 1.443439,-1.154753 2.501969,0.962295 0.673606,-1.347214 2.694426,0.288687 0.866063,-1.058524 1.92459,0.192461 1.154756,-0.673608 -1.154756,-1.92459 0.962295,-0.866063 -1.058524,-0.962295 0.192458,-1.058526 1.539674,-0.673606 -1.732132,-2.598195 0.28869,-0.769837 1.34721,-0.866066 -1.154752,-0.769834 V 43.880643 L 40.993758,43.303266 40.8013,41.763595 v -0.481147 l 1.154753,-0.09623 -0.577377,-2.117048 1.73213,-1.058524 -0.384916,-1.443442 1.924587,-1.154753 -0.09623,-1.154755 1.058524,-1.250982 -0.09623,-1.732132 1.058524,-2.020818 -0.192458,-4.619015 -1.347214,-3.368032 -1.6359,-3.945409 z" id="path62" inkscape:connector-curvature="0"/>
  </g>
  <linearGradient xmlns="http://www.w3.org/2000/svg" id="gradient">
    <stop class="main-stop" offset="0%" style="&#10;    stop-color: red;&#10;"/>
    <stop class="main-stop" offset="15%" style="&#10;    stop-color: orange;&#10;"/>
    <stop class="alt-stop" offset="30%" style="&#10;    stop-color: yellow;&#10;"/>
    <stop class="alt-stop" offset="45%" style="&#10;    stop-color: green;&#10;"/>
    <stop class="alt-stop" offset="60%" style="&#10;    stop-color: blue;&#10;"/>
    <stop class="alt-stop" offset="100%" style="&#10;    stop-color: purple;&#10;"/>
  </linearGradient>
</svg>